<svg xmlns="http://www.w3.org/2000/svg" version="1.1" xmlns:xlink="http://www.w3.org/1999/xlink" xmlns:svgjs="http://svgjs.dev/svgjs" width="1440" height="560" preserveAspectRatio="none" viewBox="0 0 1440 560"><g mask="url(&quot;#SvgjsMask2575&quot;)" fill="none"><rect width="1440" height="560" x="0" y="0" fill="url(&quot;#SvgjsLinearGradient2576&quot;)"></rect><path d="M84.14 108.66L153.43 148.66L153.43 228.66L84.14 268.66L14.86 228.66L14.86 148.66zM84.14 348.66L153.43 388.66L153.43 468.66L84.14 508.66L14.86 468.66L14.86 388.66zM153.43 -11.34L222.71 28.66L222.71 108.66L153.43 148.66L84.14 108.66L84.14 28.66zM222.71 348.66L292 388.66L292 468.66L222.71 508.66L153.43 468.66L153.43 388.66zM153.43 468.66L222.71 508.66L222.71 588.66L153.43 628.66L84.14 588.66L84.14 508.66zM222.71 588.66L292 628.66L292 708.66L222.71 748.66L153.43 708.66L153.43 628.66zM292 -11.34L361.28 28.66L361.28 108.66L292 148.66L222.71 108.66L222.71 28.66zM361.28 108.66L430.56 148.66L430.56 228.66L361.28 268.66L292 228.66L292 148.66zM361.28 348.66L430.56 388.66L430.56 468.66L361.28 508.66L292 468.66L292 388.66zM361.28 588.66L430.56 628.66L430.56 708.66L361.28 748.66L292 708.66L292 628.66zM430.56 228.66L499.85 268.66L499.85 348.66L430.56 388.66L361.28 348.66L361.28 268.66zM499.85 348.66L569.13 388.66L569.13 468.66L499.85 508.66L430.56 468.66L430.56 388.66zM430.56 468.66L499.85 508.66L499.85 588.66L430.56 628.66L361.28 588.66L361.28 508.66zM499.85 588.66L569.13 628.66L569.13 708.66L499.85 748.66L430.56 708.66L430.56 628.66zM776.98 108.66L846.27 148.66L846.27 228.66L776.98 268.66L707.7 228.66L707.7 148.66zM776.98 348.66L846.27 388.66L846.27 468.66L776.98 508.66L707.7 468.66L707.7 388.66zM707.7 468.66L776.98 508.66L776.98 588.66L707.7 628.66L638.42 588.66L638.42 508.66zM846.27 -11.34L915.55 28.66L915.55 108.66L846.27 148.66L776.98 108.66L776.98 28.66zM915.55 588.66L984.84 628.66L984.84 708.66L915.55 748.66L846.27 708.66L846.27 628.66zM1054.12 108.66L1123.4 148.66L1123.4 228.66L1054.12 268.66L984.84 228.66L984.84 148.66zM1054.12 348.66L1123.4 388.66L1123.4 468.66L1054.12 508.66L984.84 468.66L984.84 388.66zM984.84 468.66L1054.12 508.66L1054.12 588.66L984.84 628.66L915.55 588.66L915.55 508.66zM1123.4 468.66L1192.69 508.66L1192.69 588.66L1123.4 628.66L1054.12 588.66L1054.12 508.66zM1261.97 -11.34L1331.26 28.66L1331.26 108.66L1261.97 148.66L1192.69 108.66L1192.69 28.66zM1261.97 228.66L1331.26 268.66L1331.26 348.66L1261.97 388.66L1192.69 348.66L1192.69 268.66zM1331.26 588.66L1400.54 628.66L1400.54 708.66L1331.26 748.66L1261.97 708.66L1261.97 628.66zM1469.82 108.66L1539.11 148.66L1539.11 228.66L1469.82 268.66L1400.54 228.66L1400.54 148.66zM1400.54 468.66L1469.82 508.66L1469.82 588.66L1400.54 628.66L1331.26 588.66L1331.26 508.66z" stroke="url(&quot;#SvgjsLinearGradient2577&quot;)" stroke-width="2"></path><path d="M76.14 108.66 a8 8 0 1 0 16 0 a8 8 0 1 0 -16 0zM145.43 148.66 a8 8 0 1 0 16 0 a8 8 0 1 0 -16 0zM145.43 228.66 a8 8 0 1 0 16 0 a8 8 0 1 0 -16 0zM76.14 268.66 a8 8 0 1 0 16 0 a8 8 0 1 0 -16 0zM6.86 228.66 a8 8 0 1 0 16 0 a8 8 0 1 0 -16 0zM6.86 148.66 a8 8 0 1 0 16 0 a8 8 0 1 0 -16 0zM76.14 348.66 a8 8 0 1 0 16 0 a8 8 0 1 0 -16 0zM145.43 388.66 a8 8 0 1 0 16 0 a8 8 0 1 0 -16 0zM145.43 468.66 a8 8 0 1 0 16 0 a8 8 0 1 0 -16 0zM76.14 508.66 a8 8 0 1 0 16 0 a8 8 0 1 0 -16 0zM6.86 468.66 a8 8 0 1 0 16 0 a8 8 0 1 0 -16 0zM6.86 388.66 a8 8 0 1 0 16 0 a8 8 0 1 0 -16 0zM145.43 -11.34 a8 8 0 1 0 16 0 a8 8 0 1 0 -16 0zM214.71 28.66 a8 8 0 1 0 16 0 a8 8 0 1 0 -16 0zM214.71 108.66 a8 8 0 1 0 16 0 a8 8 0 1 0 -16 0zM76.14 28.66 a8 8 0 1 0 16 0 a8 8 0 1 0 -16 0zM214.71 348.66 a8 8 0 1 0 16 0 a8 8 0 1 0 -16 0zM284 388.66 a8 8 0 1 0 16 0 a8 8 0 1 0 -16 0zM284 468.66 a8 8 0 1 0 16 0 a8 8 0 1 0 -16 0zM214.71 508.66 a8 8 0 1 0 16 0 a8 8 0 1 0 -16 0zM214.71 588.66 a8 8 0 1 0 16 0 a8 8 0 1 0 -16 0zM145.43 628.66 a8 8 0 1 0 16 0 a8 8 0 1 0 -16 0zM76.14 588.66 a8 8 0 1 0 16 0 a8 8 0 1 0 -16 0zM284 628.66 a8 8 0 1 0 16 0 a8 8 0 1 0 -16 0zM284 708.66 a8 8 0 1 0 16 0 a8 8 0 1 0 -16 0zM214.71 748.66 a8 8 0 1 0 16 0 a8 8 0 1 0 -16 0zM145.43 708.66 a8 8 0 1 0 16 0 a8 8 0 1 0 -16 0zM284 -11.34 a8 8 0 1 0 16 0 a8 8 0 1 0 -16 0zM353.28 28.66 a8 8 0 1 0 16 0 a8 8 0 1 0 -16 0zM353.28 108.66 a8 8 0 1 0 16 0 a8 8 0 1 0 -16 0zM284 148.66 a8 8 0 1 0 16 0 a8 8 0 1 0 -16 0zM422.56 148.66 a8 8 0 1 0 16 0 a8 8 0 1 0 -16 0zM422.56 228.66 a8 8 0 1 0 16 0 a8 8 0 1 0 -16 0zM353.28 268.66 a8 8 0 1 0 16 0 a8 8 0 1 0 -16 0zM284 228.66 a8 8 0 1 0 16 0 a8 8 0 1 0 -16 0zM353.28 348.66 a8 8 0 1 0 16 0 a8 8 0 1 0 -16 0zM422.56 388.66 a8 8 0 1 0 16 0 a8 8 0 1 0 -16 0zM422.56 468.66 a8 8 0 1 0 16 0 a8 8 0 1 0 -16 0zM353.28 508.66 a8 8 0 1 0 16 0 a8 8 0 1 0 -16 0zM353.28 588.66 a8 8 0 1 0 16 0 a8 8 0 1 0 -16 0zM422.56 628.66 a8 8 0 1 0 16 0 a8 8 0 1 0 -16 0zM422.56 708.66 a8 8 0 1 0 16 0 a8 8 0 1 0 -16 0zM353.28 748.66 a8 8 0 1 0 16 0 a8 8 0 1 0 -16 0zM491.85 268.66 a8 8 0 1 0 16 0 a8 8 0 1 0 -16 0zM491.85 348.66 a8 8 0 1 0 16 0 a8 8 0 1 0 -16 0zM561.13 388.66 a8 8 0 1 0 16 0 a8 8 0 1 0 -16 0zM561.13 468.66 a8 8 0 1 0 16 0 a8 8 0 1 0 -16 0zM491.85 508.66 a8 8 0 1 0 16 0 a8 8 0 1 0 -16 0zM491.85 588.66 a8 8 0 1 0 16 0 a8 8 0 1 0 -16 0zM561.13 628.66 a8 8 0 1 0 16 0 a8 8 0 1 0 -16 0zM561.13 708.66 a8 8 0 1 0 16 0 a8 8 0 1 0 -16 0zM491.85 748.66 a8 8 0 1 0 16 0 a8 8 0 1 0 -16 0zM768.98 108.66 a8 8 0 1 0 16 0 a8 8 0 1 0 -16 0zM838.27 148.66 a8 8 0 1 0 16 0 a8 8 0 1 0 -16 0zM838.27 228.66 a8 8 0 1 0 16 0 a8 8 0 1 0 -16 0zM768.98 268.66 a8 8 0 1 0 16 0 a8 8 0 1 0 -16 0zM699.7 228.66 a8 8 0 1 0 16 0 a8 8 0 1 0 -16 0zM699.7 148.66 a8 8 0 1 0 16 0 a8 8 0 1 0 -16 0zM768.98 348.66 a8 8 0 1 0 16 0 a8 8 0 1 0 -16 0zM838.27 388.66 a8 8 0 1 0 16 0 a8 8 0 1 0 -16 0zM838.27 468.66 a8 8 0 1 0 16 0 a8 8 0 1 0 -16 0zM768.98 508.66 a8 8 0 1 0 16 0 a8 8 0 1 0 -16 0zM699.7 468.66 a8 8 0 1 0 16 0 a8 8 0 1 0 -16 0zM699.7 388.66 a8 8 0 1 0 16 0 a8 8 0 1 0 -16 0zM768.98 588.66 a8 8 0 1 0 16 0 a8 8 0 1 0 -16 0zM699.7 628.66 a8 8 0 1 0 16 0 a8 8 0 1 0 -16 0zM630.42 588.66 a8 8 0 1 0 16 0 a8 8 0 1 0 -16 0zM630.42 508.66 a8 8 0 1 0 16 0 a8 8 0 1 0 -16 0zM838.27 -11.34 a8 8 0 1 0 16 0 a8 8 0 1 0 -16 0zM907.55 28.66 a8 8 0 1 0 16 0 a8 8 0 1 0 -16 0zM907.55 108.66 a8 8 0 1 0 16 0 a8 8 0 1 0 -16 0zM768.98 28.66 a8 8 0 1 0 16 0 a8 8 0 1 0 -16 0zM907.55 588.66 a8 8 0 1 0 16 0 a8 8 0 1 0 -16 0zM976.84 628.66 a8 8 0 1 0 16 0 a8 8 0 1 0 -16 0zM976.84 708.66 a8 8 0 1 0 16 0 a8 8 0 1 0 -16 0zM907.55 748.66 a8 8 0 1 0 16 0 a8 8 0 1 0 -16 0zM838.27 708.66 a8 8 0 1 0 16 0 a8 8 0 1 0 -16 0zM838.27 628.66 a8 8 0 1 0 16 0 a8 8 0 1 0 -16 0zM1046.12 108.66 a8 8 0 1 0 16 0 a8 8 0 1 0 -16 0zM1115.4 148.66 a8 8 0 1 0 16 0 a8 8 0 1 0 -16 0zM1115.4 228.66 a8 8 0 1 0 16 0 a8 8 0 1 0 -16 0zM1046.12 268.66 a8 8 0 1 0 16 0 a8 8 0 1 0 -16 0zM976.84 228.66 a8 8 0 1 0 16 0 a8 8 0 1 0 -16 0zM976.84 148.66 a8 8 0 1 0 16 0 a8 8 0 1 0 -16 0zM1046.12 348.66 a8 8 0 1 0 16 0 a8 8 0 1 0 -16 0zM1115.4 388.66 a8 8 0 1 0 16 0 a8 8 0 1 0 -16 0zM1115.4 468.66 a8 8 0 1 0 16 0 a8 8 0 1 0 -16 0zM1046.12 508.66 a8 8 0 1 0 16 0 a8 8 0 1 0 -16 0zM976.84 468.66 a8 8 0 1 0 16 0 a8 8 0 1 0 -16 0zM976.84 388.66 a8 8 0 1 0 16 0 a8 8 0 1 0 -16 0zM1046.12 588.66 a8 8 0 1 0 16 0 a8 8 0 1 0 -16 0zM907.55 508.66 a8 8 0 1 0 16 0 a8 8 0 1 0 -16 0zM1184.69 508.66 a8 8 0 1 0 16 0 a8 8 0 1 0 -16 0zM1184.69 588.66 a8 8 0 1 0 16 0 a8 8 0 1 0 -16 0zM1115.4 628.66 a8 8 0 1 0 16 0 a8 8 0 1 0 -16 0zM1253.97 -11.34 a8 8 0 1 0 16 0 a8 8 0 1 0 -16 0zM1323.26 28.66 a8 8 0 1 0 16 0 a8 8 0 1 0 -16 0zM1323.26 108.66 a8 8 0 1 0 16 0 a8 8 0 1 0 -16 0zM1253.97 148.66 a8 8 0 1 0 16 0 a8 8 0 1 0 -16 0zM1184.69 108.66 a8 8 0 1 0 16 0 a8 8 0 1 0 -16 0zM1184.69 28.66 a8 8 0 1 0 16 0 a8 8 0 1 0 -16 0zM1253.97 228.66 a8 8 0 1 0 16 0 a8 8 0 1 0 -16 0zM1323.26 268.66 a8 8 0 1 0 16 0 a8 8 0 1 0 -16 0zM1323.26 348.66 a8 8 0 1 0 16 0 a8 8 0 1 0 -16 0zM1253.97 388.66 a8 8 0 1 0 16 0 a8 8 0 1 0 -16 0zM1184.69 348.66 a8 8 0 1 0 16 0 a8 8 0 1 0 -16 0zM1184.69 268.66 a8 8 0 1 0 16 0 a8 8 0 1 0 -16 0zM1323.26 588.66 a8 8 0 1 0 16 0 a8 8 0 1 0 -16 0zM1392.54 628.66 a8 8 0 1 0 16 0 a8 8 0 1 0 -16 0zM1392.54 708.66 a8 8 0 1 0 16 0 a8 8 0 1 0 -16 0zM1323.26 748.66 a8 8 0 1 0 16 0 a8 8 0 1 0 -16 0zM1253.97 708.66 a8 8 0 1 0 16 0 a8 8 0 1 0 -16 0zM1253.97 628.66 a8 8 0 1 0 16 0 a8 8 0 1 0 -16 0zM1461.82 108.66 a8 8 0 1 0 16 0 a8 8 0 1 0 -16 0zM1531.11 148.66 a8 8 0 1 0 16 0 a8 8 0 1 0 -16 0zM1531.11 228.66 a8 8 0 1 0 16 0 a8 8 0 1 0 -16 0zM1461.82 268.66 a8 8 0 1 0 16 0 a8 8 0 1 0 -16 0zM1392.54 228.66 a8 8 0 1 0 16 0 a8 8 0 1 0 -16 0zM1392.54 148.66 a8 8 0 1 0 16 0 a8 8 0 1 0 -16 0zM1392.54 468.66 a8 8 0 1 0 16 0 a8 8 0 1 0 -16 0zM1461.82 508.66 a8 8 0 1 0 16 0 a8 8 0 1 0 -16 0zM1461.82 588.66 a8 8 0 1 0 16 0 a8 8 0 1 0 -16 0zM1323.26 508.66 a8 8 0 1 0 16 0 a8 8 0 1 0 -16 0z" fill="url(&quot;#SvgjsLinearGradient2577&quot;)"></path><path d="M90.54 273.11L155.5 310.61L155.5 385.61L90.54 423.11L25.59 385.61L25.59 310.61zM220.45 48.11L285.4 85.61L285.4 160.61L220.45 198.11L155.5 160.61L155.5 85.61zM350.36 273.11L415.31 310.61L415.31 385.61L350.36 423.11L285.4 385.61L285.4 310.61zM480.27 48.11L545.22 85.61L545.22 160.61L480.27 198.11L415.31 160.61L415.31 85.61zM415.31 160.61L480.27 198.11L480.27 273.11L415.31 310.61L350.36 273.11L350.36 198.11zM545.22 160.61L610.17 198.11L610.17 273.11L545.22 310.61L480.27 273.11L480.27 198.11zM610.17 273.11L675.13 310.61L675.13 385.61L610.17 423.11L545.22 385.61L545.22 310.61zM610.17 498.11L675.13 535.61L675.13 610.61L610.17 648.11L545.22 610.61L545.22 535.61zM740.08 48.11L805.04 85.61L805.04 160.61L740.08 198.11L675.13 160.61L675.13 85.61zM675.13 160.61L740.08 198.11L740.08 273.11L675.13 310.61L610.17 273.11L610.17 198.11zM805.03 385.61L869.99 423.11L869.99 498.11L805.03 535.61L740.08 498.11L740.08 423.11zM869.99 498.11L934.94 535.61L934.94 610.61L869.99 648.11L805.03 610.61L805.03 535.61zM934.94 -64.39L999.9 -26.89L999.9 48.11L934.94 85.61L869.99 48.11L869.99 -26.89zM999.9 48.11L1064.85 85.61L1064.85 160.61L999.9 198.11L934.94 160.61L934.94 85.61zM934.94 160.61L999.9 198.11L999.9 273.11L934.94 310.61L869.99 273.11L869.99 198.11zM934.94 385.61L999.9 423.11L999.9 498.11L934.94 535.61L869.99 498.11L869.99 423.11zM1064.85 -64.39L1129.8 -26.89L1129.8 48.11L1064.85 85.61L999.9 48.11L999.9 -26.89zM1064.85 160.61L1129.8 198.11L1129.8 273.11L1064.85 310.61L999.9 273.11L999.9 198.11zM1259.71 48.11L1324.66 85.61L1324.66 160.61L1259.71 198.11L1194.76 160.61L1194.76 85.61zM1259.71 273.11L1324.66 310.61L1324.66 385.61L1259.71 423.11L1194.76 385.61L1194.76 310.61zM1324.66 -64.39L1389.62 -26.89L1389.62 48.11L1324.66 85.61L1259.71 48.11L1259.71 -26.89zM1454.57 -64.39L1519.53 -26.89L1519.53 48.11L1454.57 85.61L1389.62 48.11L1389.62 -26.89z" stroke="url(&quot;#SvgjsLinearGradient2578&quot;)" stroke-width="2"></path><path d="M83.04 273.11 a7.5 7.5 0 1 0 15 0 a7.5 7.5 0 1 0 -15 0zM148 310.61 a7.5 7.5 0 1 0 15 0 a7.5 7.5 0 1 0 -15 0zM148 385.61 a7.5 7.5 0 1 0 15 0 a7.5 7.5 0 1 0 -15 0zM83.04 423.11 a7.5 7.5 0 1 0 15 0 a7.5 7.5 0 1 0 -15 0zM18.09 385.61 a7.5 7.5 0 1 0 15 0 a7.5 7.5 0 1 0 -15 0zM18.09 310.61 a7.5 7.5 0 1 0 15 0 a7.5 7.5 0 1 0 -15 0zM212.95 48.11 a7.5 7.5 0 1 0 15 0 a7.5 7.5 0 1 0 -15 0zM277.9 85.61 a7.5 7.5 0 1 0 15 0 a7.5 7.5 0 1 0 -15 0zM277.9 160.61 a7.5 7.5 0 1 0 15 0 a7.5 7.5 0 1 0 -15 0zM212.95 198.11 a7.5 7.5 0 1 0 15 0 a7.5 7.5 0 1 0 -15 0zM148 160.61 a7.5 7.5 0 1 0 15 0 a7.5 7.5 0 1 0 -15 0zM148 85.61 a7.5 7.5 0 1 0 15 0 a7.5 7.5 0 1 0 -15 0zM342.86 273.11 a7.5 7.5 0 1 0 15 0 a7.5 7.5 0 1 0 -15 0zM407.81 310.61 a7.5 7.5 0 1 0 15 0 a7.5 7.5 0 1 0 -15 0zM407.81 385.61 a7.5 7.5 0 1 0 15 0 a7.5 7.5 0 1 0 -15 0zM342.86 423.11 a7.5 7.5 0 1 0 15 0 a7.5 7.5 0 1 0 -15 0zM277.9 385.61 a7.5 7.5 0 1 0 15 0 a7.5 7.5 0 1 0 -15 0zM277.9 310.61 a7.5 7.5 0 1 0 15 0 a7.5 7.5 0 1 0 -15 0zM472.77 48.11 a7.5 7.5 0 1 0 15 0 a7.5 7.5 0 1 0 -15 0zM537.72 85.61 a7.5 7.5 0 1 0 15 0 a7.5 7.5 0 1 0 -15 0zM537.72 160.61 a7.5 7.5 0 1 0 15 0 a7.5 7.5 0 1 0 -15 0zM472.77 198.11 a7.5 7.5 0 1 0 15 0 a7.5 7.5 0 1 0 -15 0zM407.81 160.61 a7.5 7.5 0 1 0 15 0 a7.5 7.5 0 1 0 -15 0zM407.81 85.61 a7.5 7.5 0 1 0 15 0 a7.5 7.5 0 1 0 -15 0zM472.77 273.11 a7.5 7.5 0 1 0 15 0 a7.5 7.5 0 1 0 -15 0zM342.86 198.11 a7.5 7.5 0 1 0 15 0 a7.5 7.5 0 1 0 -15 0zM602.67 198.11 a7.5 7.5 0 1 0 15 0 a7.5 7.5 0 1 0 -15 0zM602.67 273.11 a7.5 7.5 0 1 0 15 0 a7.5 7.5 0 1 0 -15 0zM537.72 310.61 a7.5 7.5 0 1 0 15 0 a7.5 7.5 0 1 0 -15 0zM667.63 310.61 a7.5 7.5 0 1 0 15 0 a7.5 7.5 0 1 0 -15 0zM667.63 385.61 a7.5 7.5 0 1 0 15 0 a7.5 7.5 0 1 0 -15 0zM602.67 423.11 a7.5 7.5 0 1 0 15 0 a7.5 7.5 0 1 0 -15 0zM537.72 385.61 a7.5 7.5 0 1 0 15 0 a7.5 7.5 0 1 0 -15 0zM602.67 498.11 a7.5 7.5 0 1 0 15 0 a7.5 7.5 0 1 0 -15 0zM667.63 535.61 a7.5 7.5 0 1 0 15 0 a7.5 7.5 0 1 0 -15 0zM667.63 610.61 a7.5 7.5 0 1 0 15 0 a7.5 7.5 0 1 0 -15 0zM602.67 648.11 a7.5 7.5 0 1 0 15 0 a7.5 7.5 0 1 0 -15 0zM537.72 610.61 a7.5 7.5 0 1 0 15 0 a7.5 7.5 0 1 0 -15 0zM537.72 535.61 a7.5 7.5 0 1 0 15 0 a7.5 7.5 0 1 0 -15 0zM732.58 48.11 a7.5 7.5 0 1 0 15 0 a7.5 7.5 0 1 0 -15 0zM797.54 85.61 a7.5 7.5 0 1 0 15 0 a7.5 7.5 0 1 0 -15 0zM797.54 160.61 a7.5 7.5 0 1 0 15 0 a7.5 7.5 0 1 0 -15 0zM732.58 198.11 a7.5 7.5 0 1 0 15 0 a7.5 7.5 0 1 0 -15 0zM667.63 160.61 a7.5 7.5 0 1 0 15 0 a7.5 7.5 0 1 0 -15 0zM667.63 85.61 a7.5 7.5 0 1 0 15 0 a7.5 7.5 0 1 0 -15 0zM732.58 273.11 a7.5 7.5 0 1 0 15 0 a7.5 7.5 0 1 0 -15 0zM797.53 385.61 a7.5 7.5 0 1 0 15 0 a7.5 7.5 0 1 0 -15 0zM862.49 423.11 a7.5 7.5 0 1 0 15 0 a7.5 7.5 0 1 0 -15 0zM862.49 498.11 a7.5 7.5 0 1 0 15 0 a7.5 7.5 0 1 0 -15 0zM797.53 535.61 a7.5 7.5 0 1 0 15 0 a7.5 7.5 0 1 0 -15 0zM732.58 498.11 a7.5 7.5 0 1 0 15 0 a7.5 7.5 0 1 0 -15 0zM732.58 423.11 a7.5 7.5 0 1 0 15 0 a7.5 7.5 0 1 0 -15 0zM927.44 535.61 a7.5 7.5 0 1 0 15 0 a7.5 7.5 0 1 0 -15 0zM927.44 610.61 a7.5 7.5 0 1 0 15 0 a7.5 7.5 0 1 0 -15 0zM862.49 648.11 a7.5 7.5 0 1 0 15 0 a7.5 7.5 0 1 0 -15 0zM797.53 610.61 a7.5 7.5 0 1 0 15 0 a7.5 7.5 0 1 0 -15 0zM927.44 -64.39 a7.5 7.5 0 1 0 15 0 a7.5 7.5 0 1 0 -15 0zM992.4 -26.89 a7.5 7.5 0 1 0 15 0 a7.5 7.5 0 1 0 -15 0zM992.4 48.11 a7.5 7.5 0 1 0 15 0 a7.5 7.5 0 1 0 -15 0zM927.44 85.61 a7.5 7.5 0 1 0 15 0 a7.5 7.5 0 1 0 -15 0zM862.49 48.11 a7.5 7.5 0 1 0 15 0 a7.5 7.5 0 1 0 -15 0zM862.49 -26.89 a7.5 7.5 0 1 0 15 0 a7.5 7.5 0 1 0 -15 0zM1057.35 85.61 a7.5 7.5 0 1 0 15 0 a7.5 7.5 0 1 0 -15 0zM1057.35 160.61 a7.5 7.5 0 1 0 15 0 a7.5 7.5 0 1 0 -15 0zM992.4 198.11 a7.5 7.5 0 1 0 15 0 a7.5 7.5 0 1 0 -15 0zM927.44 160.61 a7.5 7.5 0 1 0 15 0 a7.5 7.5 0 1 0 -15 0zM992.4 273.11 a7.5 7.5 0 1 0 15 0 a7.5 7.5 0 1 0 -15 0zM927.44 310.61 a7.5 7.5 0 1 0 15 0 a7.5 7.5 0 1 0 -15 0zM862.49 273.11 a7.5 7.5 0 1 0 15 0 a7.5 7.5 0 1 0 -15 0zM862.49 198.11 a7.5 7.5 0 1 0 15 0 a7.5 7.5 0 1 0 -15 0zM927.44 385.61 a7.5 7.5 0 1 0 15 0 a7.5 7.5 0 1 0 -15 0zM992.4 423.11 a7.5 7.5 0 1 0 15 0 a7.5 7.5 0 1 0 -15 0zM992.4 498.11 a7.5 7.5 0 1 0 15 0 a7.5 7.5 0 1 0 -15 0zM1057.35 -64.39 a7.5 7.5 0 1 0 15 0 a7.5 7.5 0 1 0 -15 0zM1122.3 -26.89 a7.5 7.5 0 1 0 15 0 a7.5 7.5 0 1 0 -15 0zM1122.3 48.11 a7.5 7.5 0 1 0 15 0 a7.5 7.5 0 1 0 -15 0zM1122.3 198.11 a7.5 7.5 0 1 0 15 0 a7.5 7.5 0 1 0 -15 0zM1122.3 273.11 a7.5 7.5 0 1 0 15 0 a7.5 7.5 0 1 0 -15 0zM1057.35 310.61 a7.5 7.5 0 1 0 15 0 a7.5 7.5 0 1 0 -15 0zM1252.21 48.11 a7.5 7.5 0 1 0 15 0 a7.5 7.5 0 1 0 -15 0zM1317.16 85.61 a7.5 7.5 0 1 0 15 0 a7.5 7.5 0 1 0 -15 0zM1317.16 160.61 a7.5 7.5 0 1 0 15 0 a7.5 7.5 0 1 0 -15 0zM1252.21 198.11 a7.5 7.5 0 1 0 15 0 a7.5 7.5 0 1 0 -15 0zM1187.26 160.61 a7.5 7.5 0 1 0 15 0 a7.5 7.5 0 1 0 -15 0zM1187.26 85.61 a7.5 7.5 0 1 0 15 0 a7.5 7.5 0 1 0 -15 0zM1252.21 273.11 a7.5 7.5 0 1 0 15 0 a7.5 7.5 0 1 0 -15 0zM1317.16 310.61 a7.5 7.5 0 1 0 15 0 a7.5 7.5 0 1 0 -15 0zM1317.16 385.61 a7.5 7.5 0 1 0 15 0 a7.5 7.5 0 1 0 -15 0zM1252.21 423.11 a7.5 7.5 0 1 0 15 0 a7.5 7.5 0 1 0 -15 0zM1187.26 385.61 a7.5 7.5 0 1 0 15 0 a7.5 7.5 0 1 0 -15 0zM1187.26 310.61 a7.5 7.5 0 1 0 15 0 a7.5 7.5 0 1 0 -15 0zM1317.16 -64.39 a7.5 7.5 0 1 0 15 0 a7.5 7.5 0 1 0 -15 0zM1382.12 -26.89 a7.5 7.5 0 1 0 15 0 a7.5 7.5 0 1 0 -15 0zM1382.12 48.11 a7.5 7.5 0 1 0 15 0 a7.5 7.5 0 1 0 -15 0zM1252.21 -26.89 a7.5 7.5 0 1 0 15 0 a7.5 7.5 0 1 0 -15 0zM1447.07 -64.39 a7.5 7.5 0 1 0 15 0 a7.5 7.5 0 1 0 -15 0zM1512.03 -26.89 a7.5 7.5 0 1 0 15 0 a7.5 7.5 0 1 0 -15 0zM1512.03 48.11 a7.5 7.5 0 1 0 15 0 a7.5 7.5 0 1 0 -15 0zM1447.07 85.61 a7.5 7.5 0 1 0 15 0 a7.5 7.5 0 1 0 -15 0z" fill="url(&quot;#SvgjsLinearGradient2578&quot;)"></path><path d="M9.6 112.46L52.9 137.46L52.9 187.46L9.6 212.46L-33.7 187.46L-33.7 137.46zM139.51 337.46L182.81 362.46L182.81 412.46L139.51 437.46L96.2 412.46L96.2 362.46zM226.11 187.46L269.42 212.46L269.42 262.46L226.11 287.46L182.81 262.46L182.81 212.46zM182.81 262.46L226.11 287.46L226.11 337.46L182.81 362.46L139.51 337.46L139.51 287.46zM182.81 412.46L226.11 437.46L226.11 487.46L182.81 512.46L139.51 487.46L139.51 437.46zM226.11 487.46L269.42 512.46L269.42 562.46L226.11 587.46L182.81 562.46L182.81 512.46zM269.42 -37.54L312.72 -12.54L312.72 37.46L269.42 62.46L226.11 37.46L226.11 -12.54zM312.72 37.46L356.02 62.46L356.02 112.46L312.72 137.46L269.42 112.46L269.42 62.46zM312.72 487.46L356.02 512.46L356.02 562.46L312.72 587.46L269.42 562.46L269.42 512.46zM399.32 187.46L442.63 212.46L442.63 262.46L399.32 287.46L356.02 262.46L356.02 212.46zM485.93 337.46L529.23 362.46L529.23 412.46L485.93 437.46L442.63 412.46L442.63 362.46zM529.23 112.46L572.53 137.46L572.53 187.46L529.23 212.46L485.93 187.46L485.93 137.46zM572.53 187.46L615.84 212.46L615.84 262.46L572.53 287.46L529.23 262.46L529.23 212.46zM529.23 262.46L572.53 287.46L572.53 337.46L529.23 362.46L485.93 337.46L485.93 287.46zM659.14 37.46L702.44 62.46L702.44 112.46L659.14 137.46L615.84 112.46L615.84 62.46zM659.14 187.46L702.44 212.46L702.44 262.46L659.14 287.46L615.84 262.46L615.84 212.46zM702.44 262.46L745.74 287.46L745.74 337.46L702.44 362.46L659.14 337.46L659.14 287.46zM702.44 412.46L745.74 437.46L745.74 487.46L702.44 512.46L659.14 487.46L659.14 437.46zM745.74 487.46L789.05 512.46L789.05 562.46L745.74 587.46L702.44 562.46L702.44 512.46zM789.05 412.46L832.35 437.46L832.35 487.46L789.05 512.46L745.74 487.46L745.74 437.46zM875.65 112.46L918.95 137.46L918.95 187.46L875.65 212.46L832.35 187.46L832.35 137.46zM1005.56 337.46L1048.86 362.46L1048.86 412.46L1005.56 437.46L962.26 412.46L962.26 362.46zM1092.16 37.46L1135.46 62.46L1135.46 112.46L1092.16 137.46L1048.86 112.46L1048.86 62.46zM1048.86 262.46L1092.16 287.46L1092.16 337.46L1048.86 362.46L1005.56 337.46L1005.56 287.46zM1135.46 412.46L1178.77 437.46L1178.77 487.46L1135.46 512.46L1092.16 487.46L1092.16 437.46zM1178.77 487.46L1222.07 512.46L1222.07 562.46L1178.77 587.46L1135.46 562.46L1135.46 512.46zM1265.37 37.46L1308.67 62.46L1308.67 112.46L1265.37 137.46L1222.07 112.46L1222.07 62.46zM1265.37 187.46L1308.67 212.46L1308.67 262.46L1265.37 287.46L1222.07 262.46L1222.07 212.46zM1222.07 262.46L1265.37 287.46L1265.37 337.46L1222.07 362.46L1178.77 337.46L1178.77 287.46zM1265.37 487.46L1308.67 512.46L1308.67 562.46L1265.37 587.46L1222.07 562.46L1222.07 512.46zM1308.67 112.46L1351.98 137.46L1351.98 187.46L1308.67 212.46L1265.37 187.46L1265.37 137.46zM1308.67 262.46L1351.98 287.46L1351.98 337.46L1308.67 362.46L1265.37 337.46L1265.37 287.46z" stroke="url(&quot;#SvgjsLinearGradient2579&quot;)" stroke-width="2"></path></g><defs><mask id="SvgjsMask2575"><rect width="1440" height="560" fill="#ffffff"></rect></mask><linearGradient x1="15.28%" y1="-39.29%" x2="84.72%" y2="139.29%" gradientUnits="userSpaceOnUse" id="SvgjsLinearGradient2576"><stop stop-color="#0e2a47" offset="0"></stop><stop stop-color="rgba(0, 0, 0, 1)" offset="1"></stop></linearGradient><linearGradient x1="220.03199999999998" y1="-220.02399999999997" x2="1219.9679999999998" y2="780.024" gradientUnits="userSpaceOnUse" id="SvgjsLinearGradient2577"><stop stop-color="#0e2a47" offset="0"></stop><stop stop-color="rgba(183, 79, 178, 1)" offset="1"></stop></linearGradient><linearGradient x1="220.03199999999998" y1="-220.02399999999997" x2="1219.9679999999998" y2="780.024" gradientUnits="userSpaceOnUse" id="SvgjsLinearGradient2578"><stop stop-color="rgba(158, 0, 129, 1)" offset="0"></stop><stop stop-color="#03305d" offset="1"></stop></linearGradient><linearGradient x1="220.03199999999998" y1="-220.02399999999997" x2="1219.9679999999998" y2="780.024" gradientUnits="userSpaceOnUse" id="SvgjsLinearGradient2579"><stop stop-color="#0e2a47" offset="0"></stop><stop stop-color="rgba(12, 68, 141, 1)" offset="1"></stop></linearGradient></defs></svg>