<?xml version="1.0" encoding="utf-8"?>
<svg version="1.1" width="1440" height="560" preserveAspectRatio="none" viewBox="0 0 1440 560" xmlns="http://www.w3.org/2000/svg">
  <g mask="url(&quot;#SvgjsMask1159&quot;)" fill="none">
    <rect width="1440" height="560" x="0" y="0" fill="url(&quot;#SvgjsLinearGradient1160&quot;)" style="stroke: url('#gradient-0');"/>
    <path d="M 1560 560 L 0 560 L 0 287.03 C 17.567 256.597 41.567 250.16 72 267.72 C 131.04 246.767 223.358 309.824 244.318 368.864 C 244.778 321.331 248.017 331.842 295.557 332.302 C 327.504 284.249 348.27 438.041 352.443 272.432 C 411.303 251.299 463.76 272.654 484.9 331.514 C 518.153 316.767 561.253 281.173 576 314.42 C 578.04 268.46 614.496 347.812 660.456 349.845 C 679.643 321.032 694.509 339.471 762.353 263.987 C 827.447 249.087 825.093 244.287 840 309.38 C 876.493 367.188 929.78 288.94 960 338.72 C 969.5 268.22 1000.365 324.917 1011.903 278.777 C 1021.102 260.05 1073.48 226.293 1154.491 263.87 C 1159.275 348.543 1223.967 286.973 1224 334.94 C 1243.193 306.133 1267.193 301.327 1296 320.52 C 1310.68 287.2 1334.68 277.88 1368 292.56 C 1382.767 259.327 1406.767 250.093 1440 264.86 C 1498.08 242.94 1538.08 261.02 1560 319.1 L 1560 560 Z" fill="#182f5d" style="stroke: url('#gradient-1');"/>
    <path d="M 1512 560 L 0 560 L 5.813 371.371 C 50.62 336.178 75.672 362.579 110.865 407.392 C 160.305 376.832 209.44 326.48 240 375.92 C 288.473 344.393 328.473 352.87 360 401.35 C 389.28 382.63 413.28 387.91 432 417.19 C 449.407 354.597 502.694 381 565.287 398.407 C 617.041 370.16 614.687 357 642.934 408.753 C 660.507 378.32 706.929 410.091 737.356 427.664 C 791.296 401.604 837.94 353.263 864 407.21 C 878.113 373.323 904.604 389.184 938.491 403.304 C 964.144 348.957 1000.823 386.929 1055.17 412.582 C 1087.923 365.329 1113.805 353.927 1161.052 386.68 C 1202.339 379.967 1241.287 323.347 1248 364.64 C 1260.227 328.867 1284.227 317.09 1320 329.31 C 1367.9 297.21 1407.9 305.11 1440 353.01 C 1472.18 337.19 1496.18 345.37 1512 377.55 L 1512 560 Z" fill="#25467d" style="stroke: url('#gradient-2');"/>
    <path d="M 1512 560 L 0 560 L 0 474.03 C 21.86 415.883 66.012 445.906 124.152 467.766 C 218.673 535.802 213.22 407.112 242.491 453.071 C 288.287 479.484 338.253 391.437 360 449.69 C 375.347 417.037 414.295 417.515 446.948 432.855 C 473.212 481.708 473.13 458.228 503.17 476.188 C 594.184 410.134 631.99 375.356 624 491.06 C 640.48 459.533 695.207 416.301 726.727 432.781 C 764.22 422.274 757.493 471.477 768 508.97 C 788.68 449.65 843.628 510.884 902.948 531.564 C 953.101 501.717 978.153 431.313 1008 481.46 C 981.66 367.077 1041.253 427.967 1080 437.22 C 1115.373 392.593 1343.379 478.505 1229.066 445.762 C 1284.666 421.362 1295.6 414.54 1320 470.14 C 1337.9 440.04 1361.9 433.937 1392 451.83 C 1421.747 401.57 1461.747 391.313 1512 421.06 L 1512 560 Z" fill="#356cb1" style="stroke: url('#gradient-3');"/>
    <path d="M 1488 560 L 0 560 L 0 497.46 C 33.747 451.2 72.086 547.088 129.135 479.52 C 179.824 537.406 222.315 465.88 249.135 519.06 C 280.468 470.4 332.925 548.104 360 492.24 C 387.592 435.309 441.513 458.037 461.066 486.49 C 575.333 552.849 503.433 528.457 504 575.89 C 509.033 532.923 535.524 528.905 578.491 533.938 C 645.747 452.288 633.299 514.349 661.287 534.365 C 710.027 503.105 762.484 459.527 781.287 560.585 C 825.14 556.438 835.853 548.887 840 592.74 C 854.027 558.767 878.027 548.793 912 562.82 C 931.933 534.76 955.933 530.697 984 550.63 C 995.347 513.977 1019.347 501.327 1056 512.68 C 1071.527 480.207 1110.475 517.408 1142.948 532.935 C 1124.474 489.688 1199.417 455.695 1248 502.61 C 1310.787 485.397 1350.787 508.183 1368 570.97 C 1377.627 500.597 1417.627 470.227 1488 479.86 L 1488 560 Z" fill="rgba(39, 51, 116, 1)" style="stroke: url('#gradient-4');"/>
  </g>
  <defs>
    <mask id="SvgjsMask1159">
      <rect width="1440" height="560" fill="#ffffff"/>
    </mask>
    <linearGradient x1="15.28%" y1="-39.29%" x2="84.72%" y2="139.29%" gradientUnits="userSpaceOnUse" id="SvgjsLinearGradient1160">
      <stop stop-color="#0E3547" offset="0"/>
      <stop stop-color="#005F9E" offset="1"/>
    </linearGradient>
    <radialGradient gradientUnits="userSpaceOnUse" cx="720" cy="280" r="720" id="gradient-0">
      <stop offset="0" style="stop-color: #bada55"/>
      <stop offset="1" style="stop-color: #758d29"/>
    </radialGradient>
    <radialGradient gradientUnits="userSpaceOnUse" cx="780" cy="385.472" r="780" id="gradient-1">
      <stop offset="0" style="stop-color: #bada55"/>
      <stop offset="1" style="stop-color: #758d29"/>
    </radialGradient>
    <radialGradient gradientUnits="userSpaceOnUse" cx="756" cy="426.329" r="756" id="gradient-2">
      <stop offset="0" style="stop-color: #bada55"/>
      <stop offset="1" style="stop-color: #758d29"/>
    </radialGradient>
    <radialGradient gradientUnits="userSpaceOnUse" cx="756" cy="468.002" r="756" id="gradient-3">
      <stop offset="0" style="stop-color: #bada55"/>
      <stop offset="1" style="stop-color: #758d29"/>
    </radialGradient>
    <radialGradient gradientUnits="userSpaceOnUse" cx="744" cy="525.039" r="744" id="gradient-4">
      <stop offset="0" style="stop-color: #bada55"/>
      <stop offset="1" style="stop-color: #758d29"/>
    </radialGradient>
  </defs>
</svg>